<?xml version="1.0" encoding="utf-8"?>
<!-- Generator: Adobe Illustrator 23.0.1, SVG Export Plug-In . SVG Version: 6.00 Build 0)  -->
<svg version="1.1" id="Capa_1" xmlns="http://www.w3.org/2000/svg" xmlns:xlink="http://www.w3.org/1999/xlink" x="0px" y="0px"
	 viewBox="0 0 402.7 402.7" style="enable-background:new 0 0 402.7 402.7;" xml:space="preserve">
<style type="text/css">
	.st0{fill:#D6A354;}
</style>
<g>
	<g>
		<path class="st0" d="M356.7,225.3L356.7,225.3c-12.7-12.5-33.1-12.4-45.6,0.3s-12.4,33.1,0.3,45.6c12.7,12.5,33.1,12.4,45.6-0.3
			C369.5,258.2,369.4,237.8,356.7,225.3z M351.7,248.1L351.7,248.1c0.1,4.6-1.5,9.1-4.6,12.4l-0.7,0.6c-6.9,6.6-17.7,6.5-24.5,0
			c-0.2-0.3-0.4-0.5-0.6-0.7c-6.5-6.8-6.6-17.5-0.2-24.3l0.7-0.6c6.8-6.5,17.5-6.6,24.3-0.2c0.2,0.3,0.4,0.5,0.6,0.7
			C349.8,239.3,351.6,243.6,351.7,248.1z"/>
	</g>
</g>
<g>
	<g>
		<path class="st0" d="M373,208.7c-21.9-21.6-57.1-21.3-78.7,0.5c-1.5,1.5-2.8,3-4.1,4.7L290,214l-60.1-21.2l-48-183.4
			c-1-3.9-4.9-6.3-8.8-5.3c-3.5,0.9-5.8,4.1-5.5,7.7l13.9,163.9L26.3,120.9c-3.8-1.3-8,0.7-9.3,4.5c-1.2,3.4,0.3,7.1,3.4,8.8
			L185.8,227l5.4,63.5l-0.2,0.2c-28.2,12.3-41,45.2-28.7,73.3c0.7,1.7,1.6,3.3,2.5,4.9c0.2,0.3,0.5,0.7,0.7,1
			c15.4,26,48.7,35,75.1,20.2c0.3-0.2,0.7-0.5,1-0.7c26-15.4,34.9-48.8,20.1-75.2c-0.2-0.3-0.5-0.7-0.7-1
			c-7.7-13.1-20.5-22.4-35.3-25.8c-1-6.6-1.5-13.3-1.5-20c0-7.3,0.8-14.5,2.5-21.6c0.5-1.8,1.1-3.5,1.8-5.2c0.4-1.1,0.9-2.3,1.2-3.3
			c10.2-1.2,26.6-0.2,48.7,9.2c-0.5,15.3,5.3,30.2,16.1,41.1c0.2,0.3,0.5,0.7,0.7,1c21.8,21,56.4,20.7,77.8-0.7
			c0.3-0.2,0.7-0.5,1-0.7C395.3,265.2,394.8,230.1,373,208.7z M189.1,95.2l24.2,91.8l-16.8-5.9L189.1,95.2z M212.4,242.2
			c-2,8.2-2.9,16.6-2.9,25c0,9.3,0.8,18.5,2.5,27.6c0.6,3.3,3.4,5.8,6.7,6c12.7,1.7,23.9,9.2,30.3,20.3c11.2,19.7,4.5,44.7-15.1,56
			s-44.7,4.6-56.1-15c-11.3-19.6-4.6-44.8,15-56.1c1.3-0.8,2.7-1.5,4.1-2.1c1.4-0.6,2.8-1.2,4.3-1.6c3.3-1,5.4-4.2,5.1-7.6l-5-59.1
			l8.5,4.9l1.3-1L212.4,242.2z M375,248.2l0.1-0.2c0.1,10.9-4.2,21.4-11.8,29.1c-15.9,16.1-41.9,16.3-58.1,0.5
			c-9.2-9-13.6-21.7-12-34.4c0.6-3.3-1.1-6.6-4.1-8c-39.4-18.2-65.7-12.4-75.1-9.1l-12.3-6.9l-5.4-3L101.8,163l188.8,66.8
			c3.2,1.2,6.8-0.1,8.6-3c0.8-1.3,1.7-2.6,2.6-3.8c1-1.2,2-2.4,3.1-3.5c16-16.1,42-16.2,58.1-0.2C370.5,226.9,374.9,237.3,375,248.2
			z"/>
	</g>
</g>
<g>
	<g>
		<circle class="st0" cx="214" cy="214.1" r="6.7"/>
	</g>
</g>
<g>
	<g>
		<path class="st0" d="M197.2,313.7c-15.4,8.9-20.7,28.7-11.8,44.1s28.6,20.7,44.1,11.8c15.1-9.4,19.8-29.3,10.3-44.5
			C230.8,310.7,212.2,305.7,197.2,313.7z M228.6,332.7c4.8,8.3,2.1,18.9-6,23.9l-0.7,0.6c-8.3,4.5-18.6,1.7-23.5-6.3
			c-0.2-0.3-0.4-0.5-0.6-0.7c-4.8-8.5-1.8-19.3,6.7-24.2C212.9,321.2,223.8,324.2,228.6,332.7z"/>
	</g>
</g>
</svg>
