<?xml version="1.0" encoding="utf-8"?>
<!-- Generator: Adobe Illustrator 23.0.1, SVG Export Plug-In . SVG Version: 6.00 Build 0)  -->
<svg version="1.1" id="Capa_1" xmlns="http://www.w3.org/2000/svg" xmlns:xlink="http://www.w3.org/1999/xlink" x="0px" y="0px"
	 viewBox="0 0 391.3 266" style="enable-background:new 0 0 391.3 266;" xml:space="preserve">
<style type="text/css">
	.st0{fill:#FAFAFA;}
	.st1{fill-rule:evenodd;clip-rule:evenodd;fill:#004871;}
	.st2{fill:#004871;}
	.st3{fill-rule:evenodd;clip-rule:evenodd;fill:#BF0811;}
	.st4{fill:#BF0811;}
	.st5{fill:none;stroke:#004871;stroke-width:2;stroke-miterlimit:10;}
	.st6{fill:#FFFFFF;}
	.st7{fill:none;stroke:#FFFFFF;stroke-width:1.5;stroke-linecap:round;stroke-linejoin:round;}
</style>
<rect x="62" y="93.6" class="st0" width="267.6" height="86.4"/>
<rect x="329.7" y="71.4" class="st0" width="54.6" height="123.4"/>
<rect x="7.5" y="71.4" class="st0" width="54.6" height="123.4"/>
<title>logo</title>
<path class="st1" d="M151.7,166.8v-59.3c10.1,0.4,20.4-1.8,29.4,4.5c10.3,7.1,15.1,16.9,13.4,29.4c-1.6,12.1-10.6,21.9-22.6,24.3
	C165.5,166.9,158.6,166.5,151.7,166.8z M169.2,114.1v45.8c10.8-0.9,19.5-11,19.7-22.7S180.1,114.9,169.2,114.1L169.2,114.1z"/>
<path class="st1" d="M82.5,165.9v-58.3c12.2-0.2,24.4-1.7,34,8.2c7.8,8.1,10.9,17.6,8,28.5c-3,11.3-10.5,19.2-22.1,21.4
	C96.1,166.9,89.3,165.9,82.5,165.9z M99.9,114v45.8c10.9-1,19.8-11.5,19.6-23.1C119.4,125.2,110.5,114.8,99.9,114z"/>
<path class="st1" d="M129.8,107.4c5.4,0,10.8,0,16.2,0c0.4,0,1,0.6,1.3,1.1c0.1,0.5,0.2,1.1,0.1,1.7c0,18,0,35.9,0,53.9
	c0,0.6,0,1.3-0.1,2.1h-17.5V107.4z"/>
<path class="st1" d="M199.4,107.6h17v58.8h-17V107.6z"/>
<path class="st2" d="M259.1,161.2c0,0-8.6,1.6-14.2-2.9v-22.5H264V130h-19.1v-14.7c4.8-2.5,10.2-3.3,15.5-2.3c0,0,7.6,1.4,9.9,4.7
	l3.6-4.2c0,0-12.2-12.8-32.2-2.9c0,0-10.2,4.9-14.5,19.3h-5.9v5.9h5.4c0,6.2,1.2,16.2,8.8,23.2c0,0,6.5,8.1,21.8,8.3
	c0,0,7.6,0.2,16.7-6.3l-3.8-4.7C267.1,159.2,263.2,161,259.1,161.2z"/>
<path class="st2" d="M319.2,166.8c0.1-5.2-1-10.3-3.1-15c-2.7-8.9-13.3-16-13.3-16c0.4,0.3,2.1-0.1,2.7-0.2c0.8-0.1,1.6-0.2,2.4-0.3
	c5.3-1.3,9.4-5.5,10.5-10.9c1-5.3-1-10.7-5.2-14.2c-1.6-1.2-4.2-2.8-6.3-2.8h-29.1v22.3h-8.5v6.1h8.5v30.8h16v-28.9
	c0.8,0.1,1.7,0.4,2.4,0.9c8.6,4.2,14,13.6,14,13.6c3.9,6.2,2.9,14.5,2.9,14.5L319.2,166.8L319.2,166.8z M293.8,129.9v-16.6h14
	c4.5,2,6.6,7.4,4.6,11.9c-0.9,2.1-2.7,3.8-4.9,4.7H293.8z"/>
<polygon class="st3" points="9.5,90.3 55.3,73.6 9.5,73.6 "/>
<polygon class="st2" points="9.9,111.6 61.2,93.6 61.2,114.9 9.9,131.9 "/>
<polygon class="st4" points="61.2,135.9 9.9,152.9 9.9,174.9 61.2,156.8 "/>
<polygon class="st2" points="61.2,177.1 61.2,193.9 20.7,193.9 "/>
<rect x="8.2" y="72.7" class="st5" width="53" height="121.1"/>
<path class="st6" d="M15.3,189.8c0,0.6-0.8,1.1-1.7,1.1l0,0c-0.9,0-1.7-0.5-1.7-1.1V77c0-0.6,0.8-1.1,1.7-1.1l0,0
	c0.9,0,1.7,0.5,1.7,1.1V189.8z"/>
<path class="st2" d="M69,62.3c0,3.6-2.9,6.5-6.4,6.5l0,0h-56c-3.6,0-6.5-2.9-6.5-6.4l0,0l0,0c0-3.6,2.9-6.5,6.5-6.5h56
	C66,55.8,68.9,58.7,69,62.3C68.9,62.3,68.9,62.3,69,62.3L69,62.3z"/>
<path class="st2" d="M59.8,53.4c-1.9-10.9-12.4-19.3-25.1-19.3s-23.1,8.4-25,19.3H59.8z"/>
<path class="st7" d="M15.3,50.3c0,0,6-13,20.7-12"/>
<polyline class="st7" points="4.5,64.8 4.5,60.9 18.2,60.9 "/>
<path class="st2" d="M69,203.7c0-3.6-2.9-6.5-6.4-6.5l0,0h-56c-3.6,0-6.5,2.8-6.5,6.4c0,0,0,0,0,0.1l0,0c0,3.6,2.9,6.5,6.5,6.5l0,0
	h56C66,210.2,68.9,207.3,69,203.7L69,203.7L69,203.7z"/>
<path class="st2" d="M59.8,212.6c-1.9,10.9-12.4,19.3-25.1,19.3s-23.2-8.4-25.1-19.3H59.8z"/>
<path class="st7" d="M15.3,215.8c0,0,6,13,20.7,12"/>
<polyline class="st7" points="4.5,205.5 4.5,201.6 18.2,201.6 "/>
<polygon class="st3" points="331.8,90.3 377.6,73.6 331.8,73.6 "/>
<polygon class="st2" points="332.2,111.6 383.5,93.6 383.5,114.9 332.2,131.9 "/>
<polygon class="st4" points="383.5,135.9 332.2,152.9 332.2,174.9 383.5,156.8 "/>
<polygon class="st2" points="383.5,177.1 383.5,193.9 343,193.9 "/>
<rect x="330.5" y="72.7" class="st5" width="53" height="121.1"/>
<path class="st6" d="M337.6,189.8c0,0.6-0.7,1.1-1.7,1.1l0,0c-0.9,0-1.7-0.5-1.7-1.1V77c0-0.6,0.7-1.1,1.7-1.1l0,0
	c0.9,0,1.7,0.5,1.7,1.1V189.8z"/>
<path class="st2" d="M391.2,62.3c0,3.6-2.9,6.5-6.5,6.5h-55.9c-3.6,0-6.5-2.9-6.5-6.5l0,0l0,0c0-3.6,2.9-6.5,6.5-6.5h56
	C388.3,55.8,391.2,58.7,391.2,62.3L391.2,62.3z"/>
<path class="st2" d="M382.1,53.4c-1.9-10.9-12.4-19.3-25.1-19.3s-23.2,8.4-25.1,19.3H382.1z"/>
<path class="st7" d="M337.6,50.3c0,0,6-13,20.7-12"/>
<polyline class="st7" points="326.7,64.8 326.7,60.9 340.5,60.9 "/>
<path class="st2" d="M391.2,203.7c0-3.6-2.9-6.5-6.5-6.5h-55.9c-3.6,0-6.5,2.9-6.5,6.5l0,0l0,0c0,3.6,2.9,6.5,6.5,6.5h56
	C388.3,210.2,391.2,207.3,391.2,203.7L391.2,203.7z"/>
<path class="st2" d="M382.1,212.6c-1.9,10.9-12.4,19.3-25.1,19.3s-23.2-8.4-25.1-19.3H382.1z"/>
<path class="st7" d="M337.6,215.8c0,0,6,13,20.7,12"/>
<polyline class="st7" points="326.7,205.5 326.7,201.6 340.5,201.6 "/>
<rect x="66.7" y="93.6" class="st4" width="258" height="8"/>
<rect x="66.7" y="172" class="st4" width="258" height="8"/>
</svg>
