<svg id="layer_1" data-name="layer 1" xmlns="http://www.w3.org/2000/svg" viewBox="0 0 64.82 261.54"><defs><style>.cls-1{fill:#26211f;}.cls-2{fill:#fff;}</style></defs><title>faro</title><path class="cls-1" d="M61.6,82.68h0a3.2,3.2,0,0,0,2.15-.82,3.24,3.24,0,0,0,1.07-2.4v-8.2a2.86,2.86,0,0,0-.89-2,7.16,7.16,0,0,0-2.8-1.53c-1.47-7.17-6.39-13.43-13.61-17.23l-.22-.1-.12,0a4.26,4.26,0,0,1-2.44-3.22,3.76,3.76,0,0,1,1.39-3.49,23.87,23.87,0,1,0-27.53-.07l.07.06a3.76,3.76,0,0,1,1.4,3.5,4.28,4.28,0,0,1-2.58,3.28l-.14.06C10.11,54.24,5.17,60.49,3.7,67.68,1.85,68.29,0,69.27,0,71.26v8.2a3.23,3.23,0,0,0,3.22,3.22h.25V214.14H3.22A3.21,3.21,0,0,0,0,217.35v8.2c0,2.17,2.28,3.2,4.48,3.82,2.83,8.13,10.14,14.47,19.46,16.91a9.88,9.88,0,0,0-1.51,5.27,10,10,0,1,0,18.46-5.27c9.32-2.45,16.64-8.79,19.46-16.93a8.35,8.35,0,0,0,3.58-1.76,2.88,2.88,0,0,0,.89-2v-8.2a3.2,3.2,0,0,0-3.22-3.22h-.25V82.67Z"/><path class="cls-2" d="M7,188.93c1.72-12.18,15.09-21,28-29.47,9.22-6.06,18.08-11.89,22.78-18.85v11.8c0,10.3-12,18.18-24.68,26.52C22.89,185.66,12.38,192.57,7,201.45Z"/><path class="cls-2" d="M32.44,214.73c3.34,0,6.72-.06,10.07-.17,7.64-5.46,15.3-12.11,15.3-20.18v-11.8c-4.7,7-13.57,12.79-22.78,18.85-6.23,4.09-12.63,8.3-17.75,12.93,5,.24,10.13.37,15.16.37Z"/><path class="cls-2" d="M7,117.5c5.37-8.88,15.88-15.78,26.12-22.51C39.88,90.55,46.31,86.31,51,81.75c-6.26-.3-12.54-.46-18.7-.46-2,0-3.94,0-5.89,0C17.49,87.56,8.39,95.22,7,105Z"/><path class="cls-2" d="M7,159.48c5.37-8.88,15.88-15.79,26.12-22.52,12.69-8.34,24.68-16.23,24.68-26.52V98.64c-4.7,7-13.56,12.79-22.78,18.85C22.1,126,8.73,134.77,7,147Z"/><path class="cls-2" d="M61.52,82.46h0a3.21,3.21,0,0,0,3.21-3.21V71.07a2.85,2.85,0,0,0-.9-2,7,7,0,0,0-2.79-1.51c-1.46-7.16-6.37-13.4-13.57-17.19l-.22-.1-.12,0A4.27,4.27,0,0,1,44.71,47a3.75,3.75,0,0,1,1.38-3.49,23.81,23.81,0,1,0-27.45-.07l.06.06A3.75,3.75,0,0,1,20.1,47a4.27,4.27,0,0,1-2.57,3.27.35.35,0,0,0-.14.06c-7.22,3.78-12.14,10-13.62,17.19C1.93,68.11.09,69.09.09,71.07v8.18A3.2,3.2,0,0,0,3.3,82.46h.25V213.57H3.3a3.2,3.2,0,0,0-3.21,3.21V225c0,2.17,2.27,3.19,4.47,3.81,2.81,8.11,10.11,14.43,19.4,16.87a10,10,0,1,0,16.91,0c9.29-2.44,16.59-8.77,19.4-16.88A8.53,8.53,0,0,0,63.84,227a2.85,2.85,0,0,0,.9-2v-8.18a3.21,3.21,0,0,0-3.21-3.21h-.25V82.45Zm.61,133.64a.89.89,0,0,1,.3.67V225a.58.58,0,0,1-.22.4c-1,1-4.11,1.74-8.34,2.29l0,0v0c-2,.26-4.31.48-6.73.64h0l0,0c-4.54.31-9.57.46-14.33.46h-.32c-3.4,0-12.14-.09-19.74-.92-1.62-.18-3-.37-4.13-.57h0c-5.93-1-6.14-2.16-6.14-2.31v-8.18a.87.87,0,0,1,.31-.67.86.86,0,0,1,.59-.23H3.4c5.08.59,11.51,1.17,29,1.17s23.93-.58,29-1.17A.93.93,0,0,1,62.13,216.1ZM32.41,258.53a7.63,7.63,0,0,1-5.06-13.36l1.08.15A3.88,3.88,0,0,0,27,246.48a4.09,4.09,0,0,0-.27,4.57,7.08,7.08,0,0,1,1.43-3.67,7.43,7.43,0,0,1,2.13-1.88c.69,0,1.38.07,2.08.07a32.52,32.52,0,0,0,5.07-.4,7.64,7.64,0,0,1-5.07,13.36ZM7.06,228.17a27.49,27.49,0,0,0,10.39,11.9l.29.18.77.44a12.27,12.27,0,0,0,1.11.59c.41.2.85.42,1.3.6A13.79,13.79,0,0,0,24.64,243c0-.11-1.7-.73-3.31-1.59-.41-.21-.81-.42-1.17-.65s-.72-.4-1-.6l-.94-.62a26.56,26.56,0,0,1-9.16-11l.62.09a25.65,25.65,0,0,0,4.66,6.72,19.92,19.92,0,0,0,1.5,1.39,5.71,5.71,0,0,0,1.69,1.14c.07-.08-.6-.77-1.22-1.49s-1.2-1.47-1.2-1.47a24.72,24.72,0,0,1-3.52-6l.49,0a5.18,5.18,0,0,0,1.24,1.62,2.83,2.83,0,0,0,.45.29c.23.13.49.21.56.13s0-.31-.13-.52L14,230a4.27,4.27,0,0,1-.3-.94c7.36.72,15.43.8,18.68.8h.17c1.61,0,7.58,0,13.85-.42a18.86,18.86,0,0,1-1.38,2.09l-.56.76c-.29.39-.58.79-.51.87s.49-.15.88-.41a9.11,9.11,0,0,0,.76-.56,21.89,21.89,0,0,0,2.8-2.89l.34,0a27.81,27.81,0,0,1-4.18,5.45s-.69.7-1.41,1.38a10,10,0,0,0-1.42,1.41,5.69,5.69,0,0,0,1.72-.9c.8-.52,1.56-1.13,1.56-1.13a29.9,29.9,0,0,0,5.79-6.29l-.14-.09.33,0a27.32,27.32,0,0,1-6,7.48s-.25.23-.63.54-.9.74-1.43,1.14a21.89,21.89,0,0,0-2.16,1.62,8.31,8.31,0,0,0,2.37-1.06,24.23,24.23,0,0,0,2.2-1.4,29.21,29.21,0,0,0,7.75-8.54h.12a26,26,0,0,1-8.39,9.17s-1.43.95-2.93,1.81a22.63,22.63,0,0,0-3,1.8,16.88,16.88,0,0,0,3.1-1.21c.76-.34,1.51-.71,2.06-1s.92-.5.92-.5A27.11,27.11,0,0,0,55.27,228.6h0a28.54,28.54,0,0,1-10.25,11l-.29.19-.79.45c-.33.2-.72.41-1.14.62s-.87.46-1.34.65c-1.84.87-3.8,1.46-3.77,1.57a14.71,14.71,0,0,0,3.82-.95c.47-.16.93-.34,1.35-.53s.83-.34,1.16-.51l1.11-.55a30,30,0,0,0,12.25-12.26l.64-.12c-3.41,9.65-13.79,16.3-25.65,16.3s-22.23-6.65-25.64-16.3Zm2.4,7,0,0ZM6.72,231v0Zm6.34,7.9Zm38.71,0h0Zm6.34-7.92v0Zm-2.72,4.26,0,0Zm4-7.38h0ZM59,215c-4.83.49-11.66.9-26.56.9s-21.73-.41-26.55-.9V81c4.82-.49,11.65-.9,26.55-.9s21.73.41,26.56.9ZM32.41,79c-17.5,0-23.92.58-29,1.16a.89.89,0,0,1-.7-.22.87.87,0,0,1-.31-.67V71.07c0-.18.29-1.79,10.28-2.88,7.6-.83,16.34-.92,19.74-.92h.32c12.62,0,27.14,1.06,29.48,3.4a.58.58,0,0,1,.22.4v8.18a.89.89,0,0,1-.3.67.91.91,0,0,1-.71.22C56.34,79.56,49.91,79,32.41,79Zm-14-26.59a6.59,6.59,0,0,0,4-5.09A6.12,6.12,0,0,0,22,44.12a22.62,22.62,0,0,0,20.85,0,6.07,6.07,0,0,0-.41,3.17,6.55,6.55,0,0,0,4,5.09l0,0c6.6,3.5,11.05,9.17,12.34,15.67-.78-.18-1.63-.35-2.54-.5h.09a14.86,14.86,0,0,0-3.56-9,24.49,24.49,0,0,0-7.34-6L44.28,52a4.86,4.86,0,0,1-2.06-1.73,6.86,6.86,0,0,1-1-2.6,11.76,11.76,0,0,0-.22-1.3,3.34,3.34,0,0,0-.08,1.4,6.63,6.63,0,0,0,.9,3A5.24,5.24,0,0,0,43,52a10,10,0,0,0,1.23.8l.85.51c.21.12.32.2.32.2a27.79,27.79,0,0,1,3.57,2.69l.15.14a18.12,18.12,0,0,0-3.4-2.23l-1-.5a18.9,18.9,0,0,1-2.14-1.21,7,7,0,0,1-1.74-1.67c-.38-.54-.53-1-.59-1A2.28,2.28,0,0,0,40.55,51a6.67,6.67,0,0,0,1.77,2,17.6,17.6,0,0,0,2.23,1.47l1,.6A16.65,16.65,0,0,1,51,60.32a13.57,13.57,0,0,1,1.86,4.37A13.74,13.74,0,0,0,51,60.91,20.85,20.85,0,0,0,45.86,56s-1.3-.91-2.67-1.69a15.81,15.81,0,0,0-2.8-1.41,21.4,21.4,0,0,0,2.61,2c.66.48,1.31,1,1.79,1.34l.78.63A19.41,19.41,0,0,1,50,61.75,11.56,11.56,0,0,1,51.69,67l-.57,0A17.86,17.86,0,0,0,46,58l-.55-.49a15,15,0,0,0-1.28-1,6.58,6.58,0,0,0-2.07-1.07,21.71,21.71,0,0,0,1.79,1.6c.23.2.43.41.63.6s.37.38.52.55l.36.39.13.16a16.54,16.54,0,0,1,3.78,8l-.91-.08a16,16,0,0,0-2.88-6.39,13,13,0,0,0-1.09-1.24c-.59-.58-1.25-1.06-1.31-1s.45.73.9,1.43.86,1.4.86,1.4a14.56,14.56,0,0,1,1.81,5.67l-.49,0a13.37,13.37,0,0,0-1.42-4.47,9.8,9.8,0,0,0-.59-.91c-.32-.44-.7-.83-.79-.77s.12.57.29,1.09.33,1,.33,1a11.85,11.85,0,0,1,.49,3.94l-.47,0a15.64,15.64,0,0,0-.34-2.83,5.72,5.72,0,0,0-.21-.7c-.12-.35-.29-.69-.39-.67s-.14.4-.18.77l-.07.73a15.09,15.09,0,0,1-.44,2.62c-4.66-.2-8.61-.22-9.87-.22h-.17c-3.28,0-11.48.09-18.9.83l.36-1.71s.22-1.13,0-1.21-.81.83-.81.83l-1,1.56a24.36,24.36,0,0,1,1.38-3.55L14,61.67c.29-.6.6-1.2.51-1.26s-.54.39-1,.89-.8,1-.8,1a27.13,27.13,0,0,0-2.16,3.74A22.42,22.42,0,0,1,14.78,59l.15-.18.39-.43c.33-.37.78-.83,1.26-1.29a24.43,24.43,0,0,0,1.92-1.81,7.88,7.88,0,0,0-2.21,1.29c-.52.37-1,.79-1.37,1.1l-.6.54A24,24,0,0,0,8.7,66.63a18.83,18.83,0,0,1,3.58-6.43,38.17,38.17,0,0,1,7.26-6.42l1.21-.86a11.34,11.34,0,0,0,2.5-2.27,4.55,4.55,0,0,0,1-3.23,2.12,2.12,0,0,0-.59-1.4,5.67,5.67,0,0,1,.28,1.36,4.36,4.36,0,0,1-1,2.74,9.76,9.76,0,0,1-2.31,1.94l-1.2.76a40.74,40.74,0,0,0-8,6.36,19.4,19.4,0,0,0-4.83,8.76L6,68.07C7.31,61.56,11.78,55.88,18.4,52.39ZM10.91,24a21.51,21.51,0,1,1,21.5,21.5A21.53,21.53,0,0,1,10.91,24ZM45.37,42.59ZM7.59,60.86h0ZM6.91,82.79a274.91,274.91,0,0,1,50.23-.88C39.84,82.65,24.22,82.91,6.91,82.79Zm51,130.74a237.49,237.49,0,0,1-51,.39C24.55,213.67,40.5,213.52,57.91,213.53ZM57.85,85.88c1.15,41.74.49,79.72-.22,120.93C56.36,165.21,57.05,127.45,57.85,85.88ZM56.11,206.81c-.92-41.6-.24-79.35.22-120.93C57.17,127.62,56.5,165.6,56.11,206.81Zm-47.71,0c-.93-41.6-.24-79.35.21-120.93C9.46,127.62,8.79,165.6,8.4,206.81Zm46,0c-.92-41.6-.23-79.35.22-120.93C55.48,127.62,54.82,165.6,54.42,206.81Zm-47.48,0c-1.27-41.6-.58-79.36.22-120.93C8.31,127.62,7.65,165.6,6.94,206.81ZM61.36,77.62a1.64,1.64,0,0,1-.46,1.07,1.7,1.7,0,0,1-1.18.23L38.52,77.7v0L38,77.67H38c-.84-.15-1.7-.27-2.58-.35,0,0-1.44-.16-1.45-.37s1.49-.5,1.49-.5c.74-.13,1.49-.24,2.25-.32v-.05c-.76-.14-1.52-.26-2.3-.36,0,0-1.44-.2-1.44-.4s1.5-.46,1.5-.46c.69-.11,1.39-.19,2.09-.26,0,0,0,0,0-.07l-2.15-.37S34,73.87,34,73.67s1.52-.39,1.52-.39l2-.2V73l-2.14-.42S33.94,72.24,34,72s1.53-.35,1.53-.35l2.15-.17a.22.22,0,0,1,0-.08l-2.28-.49s-1.42-.34-1.41-.55,1.54-.31,1.54-.31l2.39-.14-2.53-.61S33.93,69,34,68.75s1.55-.27,1.55-.27l2.91-.11c1-.27,6.33.15,7,.18a82.59,82.59,0,0,1,12.71,1.71c1.29.27,3.1.36,3.58,1.82S61.6,76,61.36,77.62Zm-44.8,0c0,.2-1.52.36-1.52.36-.84.09-1.66.2-2.47.35a.83.83,0,0,1-.28.08l-.28,0h0l-7,.47a1.81,1.81,0,0,1-1.24-.21,1.85,1.85,0,0,1-.48-1.47c0-1.33,0-2.67-.07-4,0-.72-.26-1.74.33-2.27S6.32,70.2,7.24,70c1.33-.28,2.67-.52,4-.73a4.07,4.07,0,0,1,.61-.06v0l3.22.12s1.46.08,1.48.29-1.47.58-1.47.58l-1.78.43a.86.86,0,0,0,0,.16l1.77.1s1.45.12,1.47.32-1.48.55-1.48.55l-1.74.38v.18l1.76.14s1.45.14,1.46.35-1.49.52-1.49.52l-1.75.34v.17l1.79.18s1.45.18,1.45.39-1.5.48-1.5.48l-1.82.32v.1c.63.07,1.26.15,1.88.24,0,0,1.45.25,1.44.45s-1.51.41-1.51.41c-.66.09-1.3.19-1.94.3v.1c.69.08,1.37.18,2,.29C15.14,77.09,16.57,77.38,16.56,77.59ZM15.14,218.9q-1,.18-2,.3v.1c.64.11,1.28.21,1.94.3,0,0,1.5.2,1.51.4s-1.44.46-1.44.46c-.62.09-1.25.17-1.88.24v.1l1.82.32s1.5.27,1.5.48-1.45.38-1.45.38l-1.79.19v.17l1.75.34s1.49.31,1.49.52-1.46.35-1.46.35l-1.76.14v.18l1.74.38s1.49.34,1.48.54-1.47.32-1.47.32l-1.77.11a.81.81,0,0,0,0,.16l1.78.43s1.49.38,1.47.58-1.48.29-1.48.29l-3.22.11h0a6,6,0,0,1-.61-.06c-1.34-.21-2.68-.45-4-.73-.92-.2-3-.28-3.67-.92s-.34-1.54-.33-2.26c0-1.33,0-2.67.07-4a1.84,1.84,0,0,1,.48-1.47A1.81,1.81,0,0,1,5,217.13l7,.47h0l.28,0a.83.83,0,0,1,.28.08c.81.14,1.63.26,2.47.34,0,0,1.51.16,1.52.37S15.14,218.9,15.14,218.9Zm18.81.15c0-.2,1.45-.36,1.45-.36.88-.08,1.74-.2,2.58-.35H38l.48-.08v.05l21.2-1.22a1.26,1.26,0,0,1,1.64,1.3c.24,1.6.82,4,.3,5.54s-2.29,1.55-3.58,1.82a82.57,82.57,0,0,1-12.71,1.7c-.63,0-6,.46-7,.19l-2.91-.11s-1.53-.07-1.55-.28,1.4-.57,1.4-.57l2.53-.61-2.39-.14s-1.52-.11-1.54-.31,1.41-.55,1.41-.55l2.28-.5a.17.17,0,0,1,0-.07l-2.15-.17S34,224.17,34,224s1.42-.51,1.42-.51l2.14-.42v-.12l-2-.21s-1.52-.17-1.52-.38,1.43-.48,1.43-.48l2.15-.37s0,0,0-.07c-.7-.07-1.4-.16-2.09-.26,0,0-1.51-.25-1.5-.46s1.44-.4,1.44-.4c.78-.1,1.54-.22,2.3-.36v-.05c-.76-.08-1.51-.19-2.25-.32C35.44,219.56,33.94,219.26,34,219.05Zm4.88,33.11a6.84,6.84,0,0,1-1.25,2.5,7.07,7.07,0,0,1-2.15,1.81,7.24,7.24,0,0,1-5.45.62,5.68,5.68,0,0,1-2.41-1.4,3.88,3.88,0,0,1-1.19-2.43A3.9,3.9,0,0,0,28,255.2a5.67,5.67,0,0,0,2.25.82,6.86,6.86,0,0,0,1.5,0,5,5,0,0,1-2.35-.92,7.15,7.15,0,0,0,5.44-1.31,6.71,6.71,0,0,0,1.77-2,7,7,0,0,0,.93-2.87,5.15,5.15,0,0,1,.11,3.18,3.54,3.54,0,0,0,.16-.34,7.64,7.64,0,0,0,.34-4.93A6.93,6.93,0,0,1,38.83,252.16Zm-7.33,2.35a13.5,13.5,0,0,0,2.66-2.07,14.7,14.7,0,0,0,2.23-2.5,4,4,0,0,1-4.89,4.57ZM45.14,36.83a17.51,17.51,0,0,0,1.37-1.72,18.7,18.7,0,0,1-10.37,6.67,20.5,20.5,0,0,0,8.21-5.88,20,20,0,0,0,4.33-8.6,20,20,0,0,0-.33-9.63,20.29,20.29,0,0,0-5-8.77,18.66,18.66,0,0,1,6.3,9.26,19.27,19.27,0,0,0-.83-2.5,20.84,20.84,0,0,0-7.29-9.13,19.54,19.54,0,0,1,8.31,8.73,19.62,19.62,0,0,1-4,22.4A19.53,19.53,0,0,1,35.18,43,20.9,20.9,0,0,0,45.14,36.83ZM12.79,21.41a22.38,22.38,0,0,0-.14,8.49A19.16,19.16,0,0,1,29.14,4.4a22.06,22.06,0,0,0-16.35,17Zm25,18.13A20.88,20.88,0,0,0,46.43,14.7a17.16,17.16,0,0,1-8.62,24.84Zm1.91-3.31a24.5,24.5,0,0,0,4.65-6.68A7.83,7.83,0,0,1,41.84,32c.64-1.51,1.16-2.82,1.76-4.09s1.25-2.53,2-4a8.15,8.15,0,0,1-.12,3,23.75,23.75,0,0,0,1.37-6.14,13.75,13.75,0,0,1-.93,9A13.57,13.57,0,0,1,39.72,36.23Zm-14.08,5.1a32.43,32.43,0,0,0,4.93,1.86A18,18,0,0,1,14,32.15a30.42,30.42,0,0,0,4.27,4.42,17.06,17.06,0,0,1-1.54-2.18C18.6,35.66,20.31,36.8,22,38s3.33,2.38,5.11,3.7C26.6,41.58,26.12,41.47,25.64,41.33Z"/></svg>